<mxfile host="app.diagrams.net" modified="2023-06-16T01:10:52.990Z" agent="Mozilla/5.0 (X11; Ubuntu; Linux x86_64; rv:109.0) Gecko/20100101 Firefox/114.0" etag="eG8kDXjxyTILCBuhSuwu" version="21.2.9" type="github">
  <diagram name="Page-1" id="0wguQ76YiwSqDK99gHfy">
    <mxGraphModel dx="824" dy="1564" grid="1" gridSize="10" guides="1" tooltips="1" connect="1" arrows="1" fold="1" page="1" pageScale="1" pageWidth="850" pageHeight="1100" math="0" shadow="0">
      <root>
        <mxCell id="0" />
        <mxCell id="1" parent="0" />
        <mxCell id="4kwB6RhjjtPIvawW0hcN-1" value="parent spatial node" style="rounded=0;whiteSpace=wrap;html=1;resizeHeight=1;fixedWidth=1;autosize=1;" parent="1" vertex="1">
          <mxGeometry x="150" y="230" width="120" height="30" as="geometry" />
        </mxCell>
        <mxCell id="ln1YY3OUBzTWCqrGMW5q-24" style="edgeStyle=orthogonalEdgeStyle;rounded=0;orthogonalLoop=1;jettySize=auto;html=1;entryX=0;entryY=0.5;entryDx=0;entryDy=0;" edge="1" parent="1" source="4kwB6RhjjtPIvawW0hcN-2" target="ln1YY3OUBzTWCqrGMW5q-22">
          <mxGeometry relative="1" as="geometry">
            <Array as="points">
              <mxPoint x="720" />
              <mxPoint x="845" />
              <mxPoint x="845" y="-5" />
            </Array>
          </mxGeometry>
        </mxCell>
        <mxCell id="ln1YY3OUBzTWCqrGMW5q-25" value="imports at startup" style="edgeLabel;html=1;align=center;verticalAlign=middle;resizable=0;points=[];" vertex="1" connectable="0" parent="ln1YY3OUBzTWCqrGMW5q-24">
          <mxGeometry x="-0.3391" relative="1" as="geometry">
            <mxPoint as="offset" />
          </mxGeometry>
        </mxCell>
        <mxCell id="4kwB6RhjjtPIvawW0hcN-2" value="central script functions" style="rounded=0;whiteSpace=wrap;html=1;resizeHeight=1;fixedWidth=1;autosize=1;" parent="1" vertex="1">
          <mxGeometry x="660" y="150" width="120" height="40" as="geometry" />
        </mxCell>
        <mxCell id="4kwB6RhjjtPIvawW0hcN-4" style="edgeStyle=orthogonalEdgeStyle;rounded=0;orthogonalLoop=1;jettySize=auto;html=1;entryX=0.5;entryY=1;entryDx=0;entryDy=0;" parent="1" source="4kwB6RhjjtPIvawW0hcN-3" target="4kwB6RhjjtPIvawW0hcN-2" edge="1">
          <mxGeometry relative="1" as="geometry" />
        </mxCell>
        <mxCell id="4kwB6RhjjtPIvawW0hcN-5" value="extends" style="edgeLabel;html=1;align=center;verticalAlign=middle;resizable=0;points=[];" parent="4kwB6RhjjtPIvawW0hcN-4" vertex="1" connectable="0">
          <mxGeometry x="0.2276" y="-2" relative="1" as="geometry">
            <mxPoint as="offset" />
          </mxGeometry>
        </mxCell>
        <mxCell id="ln1YY3OUBzTWCqrGMW5q-4" value="" style="edgeStyle=orthogonalEdgeStyle;rounded=0;orthogonalLoop=1;jettySize=auto;html=1;" edge="1" parent="1" source="4kwB6RhjjtPIvawW0hcN-3" target="ln1YY3OUBzTWCqrGMW5q-3">
          <mxGeometry relative="1" as="geometry" />
        </mxCell>
        <mxCell id="ln1YY3OUBzTWCqrGMW5q-10" style="edgeStyle=orthogonalEdgeStyle;rounded=0;orthogonalLoop=1;jettySize=auto;html=1;entryX=1;entryY=0.75;entryDx=0;entryDy=0;" edge="1" parent="1" source="4kwB6RhjjtPIvawW0hcN-3" target="ln1YY3OUBzTWCqrGMW5q-7">
          <mxGeometry relative="1" as="geometry" />
        </mxCell>
        <mxCell id="ln1YY3OUBzTWCqrGMW5q-11" value="script attached to" style="edgeLabel;html=1;align=center;verticalAlign=middle;resizable=0;points=[];" vertex="1" connectable="0" parent="ln1YY3OUBzTWCqrGMW5q-10">
          <mxGeometry x="0.1482" y="3" relative="1" as="geometry">
            <mxPoint as="offset" />
          </mxGeometry>
        </mxCell>
        <mxCell id="4kwB6RhjjtPIvawW0hcN-3" value="main_vr.gd" style="rounded=0;whiteSpace=wrap;html=1;resizeHeight=1;fixedWidth=1;autosize=1;" parent="1" vertex="1">
          <mxGeometry x="660" y="335" width="120" height="30" as="geometry" />
        </mxCell>
        <mxCell id="4kwB6RhjjtPIvawW0hcN-7" style="edgeStyle=orthogonalEdgeStyle;rounded=0;orthogonalLoop=1;jettySize=auto;html=1;entryX=0.583;entryY=1;entryDx=0;entryDy=0;entryPerimeter=0;" parent="1" source="4kwB6RhjjtPIvawW0hcN-6" target="4kwB6RhjjtPIvawW0hcN-1" edge="1">
          <mxGeometry relative="1" as="geometry" />
        </mxCell>
        <mxCell id="4kwB6RhjjtPIvawW0hcN-8" value="&amp;nbsp; " style="edgeLabel;html=1;align=center;verticalAlign=middle;resizable=0;points=[];" parent="4kwB6RhjjtPIvawW0hcN-7" vertex="1" connectable="0">
          <mxGeometry x="-0.2848" y="-2" relative="1" as="geometry">
            <mxPoint as="offset" />
          </mxGeometry>
        </mxCell>
        <mxCell id="4kwB6RhjjtPIvawW0hcN-10" value="script attached to" style="edgeLabel;html=1;align=center;verticalAlign=middle;resizable=0;points=[];" parent="4kwB6RhjjtPIvawW0hcN-7" vertex="1" connectable="0">
          <mxGeometry x="-0.3818" y="2" relative="1" as="geometry">
            <mxPoint as="offset" />
          </mxGeometry>
        </mxCell>
        <mxCell id="4kwB6RhjjtPIvawW0hcN-6" value="scene_basic_behavior.gd" style="rounded=0;whiteSpace=wrap;html=1;resizeHeight=1;fixedWidth=1;autosize=1;" parent="1" vertex="1">
          <mxGeometry x="130" y="420" width="170" height="30" as="geometry" />
        </mxCell>
        <mxCell id="4kwB6RhjjtPIvawW0hcN-9" value="scene7" style="rounded=0;whiteSpace=wrap;html=1;resizeHeight=1;fixedWidth=1;autosize=1;" parent="1" vertex="1">
          <mxGeometry x="150" y="80" width="120" height="30" as="geometry" />
        </mxCell>
        <mxCell id="ln1YY3OUBzTWCqrGMW5q-1" value="audio stream player" style="rounded=0;whiteSpace=wrap;html=1;resizeHeight=1;fixedWidth=1;autosize=1;" vertex="1" parent="1">
          <mxGeometry x="155" y="120" width="120" height="30" as="geometry" />
        </mxCell>
        <mxCell id="ln1YY3OUBzTWCqrGMW5q-2" value="animation player" style="rounded=0;whiteSpace=wrap;html=1;resizeHeight=1;fixedWidth=1;autosize=1;" vertex="1" parent="1">
          <mxGeometry x="170" y="160" width="120" height="30" as="geometry" />
        </mxCell>
        <mxCell id="ln1YY3OUBzTWCqrGMW5q-5" style="edgeStyle=orthogonalEdgeStyle;rounded=0;orthogonalLoop=1;jettySize=auto;html=1;entryX=0.75;entryY=1;entryDx=0;entryDy=0;" edge="1" parent="1" source="ln1YY3OUBzTWCqrGMW5q-3" target="4kwB6RhjjtPIvawW0hcN-2">
          <mxGeometry relative="1" as="geometry">
            <Array as="points">
              <mxPoint x="920" y="350" />
              <mxPoint x="860" y="350" />
              <mxPoint x="860" y="240" />
              <mxPoint x="780" y="240" />
              <mxPoint x="780" y="210" />
              <mxPoint x="750" y="210" />
            </Array>
          </mxGeometry>
        </mxCell>
        <mxCell id="ln1YY3OUBzTWCqrGMW5q-6" value="defined inside of" style="edgeLabel;html=1;align=center;verticalAlign=middle;resizable=0;points=[];" vertex="1" connectable="0" parent="ln1YY3OUBzTWCqrGMW5q-5">
          <mxGeometry x="0.2444" y="1" relative="1" as="geometry">
            <mxPoint as="offset" />
          </mxGeometry>
        </mxCell>
        <mxCell id="ln1YY3OUBzTWCqrGMW5q-32" style="edgeStyle=orthogonalEdgeStyle;rounded=0;orthogonalLoop=1;jettySize=auto;html=1;" edge="1" parent="1" source="ln1YY3OUBzTWCqrGMW5q-3" target="ln1YY3OUBzTWCqrGMW5q-31">
          <mxGeometry relative="1" as="geometry" />
        </mxCell>
        <mxCell id="ln1YY3OUBzTWCqrGMW5q-3" value="full_scene_setup()" style="rounded=0;whiteSpace=wrap;html=1;resizeHeight=1;fixedWidth=1;autosize=1;" vertex="1" parent="1">
          <mxGeometry x="860" y="365" width="120" height="30" as="geometry" />
        </mxCell>
        <mxCell id="ln1YY3OUBzTWCqrGMW5q-8" style="edgeStyle=orthogonalEdgeStyle;rounded=0;orthogonalLoop=1;jettySize=auto;html=1;entryX=1;entryY=0.75;entryDx=0;entryDy=0;" edge="1" parent="1" source="ln1YY3OUBzTWCqrGMW5q-7" target="4kwB6RhjjtPIvawW0hcN-1">
          <mxGeometry relative="1" as="geometry" />
        </mxCell>
        <mxCell id="ln1YY3OUBzTWCqrGMW5q-9" value="spatial child of" style="edgeLabel;html=1;align=center;verticalAlign=middle;resizable=0;points=[];" vertex="1" connectable="0" parent="ln1YY3OUBzTWCqrGMW5q-8">
          <mxGeometry x="0.3627" y="1" relative="1" as="geometry">
            <mxPoint as="offset" />
          </mxGeometry>
        </mxCell>
        <mxCell id="ln1YY3OUBzTWCqrGMW5q-7" value="&lt;div&gt;main_vr.tscn &lt;br&gt;&lt;/div&gt;&lt;div&gt;contains spatial manual_loading&lt;/div&gt;" style="rounded=0;whiteSpace=wrap;html=1;resizeHeight=1;fixedWidth=1;autosize=1;" vertex="1" parent="1">
          <mxGeometry x="390" y="250" width="120" height="60" as="geometry" />
        </mxCell>
        <mxCell id="ln1YY3OUBzTWCqrGMW5q-16" style="edgeStyle=orthogonalEdgeStyle;rounded=0;orthogonalLoop=1;jettySize=auto;html=1;entryX=0.683;entryY=1.017;entryDx=0;entryDy=0;entryPerimeter=0;" edge="1" parent="1" source="ln1YY3OUBzTWCqrGMW5q-12" target="ln1YY3OUBzTWCqrGMW5q-7">
          <mxGeometry relative="1" as="geometry" />
        </mxCell>
        <mxCell id="ln1YY3OUBzTWCqrGMW5q-12" value="&lt;div&gt;plant_holder&lt;/div&gt;&lt;div&gt;spatial&lt;/div&gt;&lt;div&gt;&lt;br&gt;&lt;/div&gt;" style="rounded=0;whiteSpace=wrap;html=1;resizeHeight=1;fixedWidth=1;autosize=1;" vertex="1" parent="1">
          <mxGeometry x="410" y="680" width="120" height="60" as="geometry" />
        </mxCell>
        <mxCell id="ln1YY3OUBzTWCqrGMW5q-15" style="edgeStyle=orthogonalEdgeStyle;rounded=0;orthogonalLoop=1;jettySize=auto;html=1;" edge="1" parent="1" source="ln1YY3OUBzTWCqrGMW5q-13" target="ln1YY3OUBzTWCqrGMW5q-7">
          <mxGeometry relative="1" as="geometry">
            <Array as="points">
              <mxPoint x="370" y="595" />
              <mxPoint x="370" y="370" />
              <mxPoint x="450" y="370" />
            </Array>
          </mxGeometry>
        </mxCell>
        <mxCell id="ln1YY3OUBzTWCqrGMW5q-18" value="instanced scene into" style="edgeLabel;html=1;align=center;verticalAlign=middle;resizable=0;points=[];" vertex="1" connectable="0" parent="ln1YY3OUBzTWCqrGMW5q-15">
          <mxGeometry x="-0.1089" relative="1" as="geometry">
            <mxPoint as="offset" />
          </mxGeometry>
        </mxCell>
        <mxCell id="ln1YY3OUBzTWCqrGMW5q-20" value="&lt;div&gt;Might be able to abstract this into an Actor &lt;br&gt;&lt;/div&gt;&lt;div&gt;where the VR vs Desktop thing is generalized&lt;br&gt;&lt;/div&gt;" style="edgeLabel;html=1;align=center;verticalAlign=middle;resizable=0;points=[];" vertex="1" connectable="0" parent="ln1YY3OUBzTWCqrGMW5q-15">
          <mxGeometry x="-0.3827" y="-5" relative="1" as="geometry">
            <mxPoint as="offset" />
          </mxGeometry>
        </mxCell>
        <mxCell id="ln1YY3OUBzTWCqrGMW5q-13" value="&lt;div&gt;main_vr_firstperson.tscn&lt;/div&gt;&lt;div&gt;&lt;br&gt;&lt;/div&gt;&lt;div&gt;contains &lt;br&gt;&lt;/div&gt;&lt;div&gt;parent called OVRFirstPerson&lt;br&gt;&lt;/div&gt;&lt;div&gt;&lt;br&gt;&lt;/div&gt;&lt;div&gt;has signals on it&lt;/div&gt;&lt;div&gt;signal handRayCollided(ob)&lt;br&gt;signal handRayExited(ob)&lt;br&gt;signal handRayPoint(pos)&lt;br&gt;signal handTrigger()&lt;br&gt;signal handSelected()&lt;br&gt;signal controllerActive(ob)&lt;br&gt;&lt;/div&gt;&lt;div&gt;&lt;br&gt;&lt;/div&gt;&lt;div&gt;These signals make it possible for the main_vr scene to listen for the signals and apply actions to things like the plants or navigation system&lt;br&gt;&lt;/div&gt;" style="rounded=0;whiteSpace=wrap;html=1;resizeHeight=1;fixedWidth=1;autosize=1;" vertex="1" parent="1">
          <mxGeometry x="80" y="540" width="160" height="290" as="geometry" />
        </mxCell>
        <mxCell id="ln1YY3OUBzTWCqrGMW5q-17" style="edgeStyle=orthogonalEdgeStyle;rounded=0;orthogonalLoop=1;jettySize=auto;html=1;entryX=0.883;entryY=0.983;entryDx=0;entryDy=0;entryPerimeter=0;" edge="1" parent="1" source="ln1YY3OUBzTWCqrGMW5q-14" target="ln1YY3OUBzTWCqrGMW5q-7">
          <mxGeometry relative="1" as="geometry">
            <Array as="points">
              <mxPoint x="560" y="590" />
              <mxPoint x="560" y="400" />
              <mxPoint x="496" y="400" />
            </Array>
          </mxGeometry>
        </mxCell>
        <mxCell id="ln1YY3OUBzTWCqrGMW5q-19" value="instanced scene into" style="edgeLabel;html=1;align=center;verticalAlign=middle;resizable=0;points=[];" vertex="1" connectable="0" parent="ln1YY3OUBzTWCqrGMW5q-17">
          <mxGeometry x="-0.1179" y="-1" relative="1" as="geometry">
            <mxPoint as="offset" />
          </mxGeometry>
        </mxCell>
        <mxCell id="ln1YY3OUBzTWCqrGMW5q-14" value="&lt;div&gt;test_collision_mouse.tscn&lt;/div&gt;&lt;div&gt;parent is spatial with same name&lt;br&gt;&lt;/div&gt;" style="rounded=0;whiteSpace=wrap;html=1;resizeHeight=1;fixedWidth=1;autosize=1;" vertex="1" parent="1">
          <mxGeometry x="580" y="560" width="150" height="60" as="geometry" />
        </mxCell>
        <mxCell id="ln1YY3OUBzTWCqrGMW5q-22" value="&lt;div&gt;area.tscn&lt;/div&gt;&lt;div&gt;&lt;br&gt;&lt;/div&gt;&lt;div&gt;signals &lt;br&gt;&lt;/div&gt;&lt;div&gt;signal activated(pth)&lt;br&gt;&lt;/div&gt;" style="rounded=0;whiteSpace=wrap;html=1;resizeHeight=1;fixedWidth=1;autosize=1;" vertex="1" parent="1">
          <mxGeometry x="930" y="-40" width="160" height="70" as="geometry" />
        </mxCell>
        <mxCell id="ln1YY3OUBzTWCqrGMW5q-28" value="&lt;div&gt;Mesh instance&lt;br&gt;&lt;/div&gt;&lt;div&gt;&amp;nbsp;for box&lt;/div&gt;&lt;div&gt;hidden or not&lt;br&gt;&lt;/div&gt;" style="rounded=0;whiteSpace=wrap;html=1;resizeHeight=1;fixedWidth=1;autosize=1;" vertex="1" parent="1">
          <mxGeometry x="930" y="45" width="160" height="60" as="geometry" />
        </mxCell>
        <mxCell id="ln1YY3OUBzTWCqrGMW5q-29" value="&lt;div&gt;data holder&lt;/div&gt;&lt;div&gt;spatial that essentially determines where the panel appears&lt;br&gt;&lt;/div&gt;" style="rounded=0;whiteSpace=wrap;html=1;resizeHeight=1;fixedWidth=1;autosize=1;" vertex="1" parent="1">
          <mxGeometry x="860" y="105" width="160" height="70" as="geometry" />
        </mxCell>
        <mxCell id="ln1YY3OUBzTWCqrGMW5q-30" value="&lt;div&gt;collision shape&lt;/div&gt;&lt;div&gt;&lt;br&gt;&lt;/div&gt;&lt;div&gt;for interaction that causes activation&lt;br&gt;&lt;/div&gt;" style="rounded=0;whiteSpace=wrap;html=1;resizeHeight=1;fixedWidth=1;autosize=1;" vertex="1" parent="1">
          <mxGeometry x="1020" y="105" width="160" height="70" as="geometry" />
        </mxCell>
        <mxCell id="ln1YY3OUBzTWCqrGMW5q-34" value="" style="edgeStyle=orthogonalEdgeStyle;rounded=0;orthogonalLoop=1;jettySize=auto;html=1;" edge="1" parent="1" source="ln1YY3OUBzTWCqrGMW5q-31" target="ln1YY3OUBzTWCqrGMW5q-33">
          <mxGeometry relative="1" as="geometry" />
        </mxCell>
        <mxCell id="ln1YY3OUBzTWCqrGMW5q-31" value="&lt;div&gt;load_from_json(jpth)&lt;/div&gt;&lt;div&gt;&lt;br&gt;&lt;/div&gt;&lt;div&gt;threaded&lt;/div&gt;&lt;div&gt;&lt;br&gt;&lt;/div&gt;&lt;div&gt;accepts a path to a json file&lt;/div&gt;&lt;div&gt;&lt;br&gt;&lt;/div&gt;&lt;div&gt;currently setup to take a file that has the order showing a wrapping of the plants to keep similar genotypes together&lt;/div&gt;&lt;div&gt;&lt;br&gt;&lt;/div&gt;&lt;div&gt;reads the x,z coordinates from the json to figure out where to place the plants also&lt;br&gt;&lt;/div&gt;" style="rounded=0;whiteSpace=wrap;html=1;resizeHeight=1;fixedWidth=1;autosize=1;" vertex="1" parent="1">
          <mxGeometry x="1090" y="260" width="120" height="290" as="geometry" />
        </mxCell>
        <mxCell id="ln1YY3OUBzTWCqrGMW5q-37" value="" style="edgeStyle=orthogonalEdgeStyle;rounded=0;orthogonalLoop=1;jettySize=auto;html=1;" edge="1" parent="1" source="ln1YY3OUBzTWCqrGMW5q-33" target="ln1YY3OUBzTWCqrGMW5q-36">
          <mxGeometry relative="1" as="geometry" />
        </mxCell>
        <mxCell id="ln1YY3OUBzTWCqrGMW5q-33" value="load_add_plant(pth,x=0,z=0)" style="rounded=0;whiteSpace=wrap;html=1;resizeHeight=1;fixedWidth=1;autosize=1;" vertex="1" parent="1">
          <mxGeometry x="1290" y="390" width="170" height="30" as="geometry" />
        </mxCell>
        <mxCell id="ln1YY3OUBzTWCqrGMW5q-36" value="&lt;div&gt;make_pt_area(pth)&lt;/div&gt;&lt;div&gt;&lt;br&gt;&lt;/div&gt;&lt;div&gt;creates the pt, and area elements from the .tscn and the custom gdnlib&lt;/div&gt;&lt;div&gt;&lt;br&gt;&lt;/div&gt;&lt;div&gt;in the course of running this function we also bind the pt to the pt to the area via the area&#39;s .set_plant method&lt;/div&gt;&lt;div&gt;&lt;br&gt;&lt;/div&gt;&lt;div&gt;we also calculate the name of the plant for the area element so that it knows what data to look up in the folders to put in the vis panel&lt;br&gt;&lt;/div&gt;" style="rounded=0;whiteSpace=wrap;html=1;resizeHeight=1;fixedWidth=1;autosize=1;" vertex="1" parent="1">
          <mxGeometry x="1290" y="90" width="170" height="240" as="geometry" />
        </mxCell>
        <mxCell id="ln1YY3OUBzTWCqrGMW5q-40" style="edgeStyle=orthogonalEdgeStyle;rounded=0;orthogonalLoop=1;jettySize=auto;html=1;entryX=1;entryY=0.5;entryDx=0;entryDy=0;" edge="1" parent="1" source="ln1YY3OUBzTWCqrGMW5q-38" target="ln1YY3OUBzTWCqrGMW5q-22">
          <mxGeometry relative="1" as="geometry" />
        </mxCell>
        <mxCell id="ln1YY3OUBzTWCqrGMW5q-44" style="edgeStyle=orthogonalEdgeStyle;rounded=0;orthogonalLoop=1;jettySize=auto;html=1;entryX=0.5;entryY=1;entryDx=0;entryDy=0;" edge="1" parent="1" source="ln1YY3OUBzTWCqrGMW5q-38" target="ln1YY3OUBzTWCqrGMW5q-41">
          <mxGeometry relative="1" as="geometry" />
        </mxCell>
        <mxCell id="ln1YY3OUBzTWCqrGMW5q-45" value="imports this to instantiate on &quot;active&quot;" style="edgeLabel;html=1;align=center;verticalAlign=middle;resizable=0;points=[];" vertex="1" connectable="0" parent="ln1YY3OUBzTWCqrGMW5q-44">
          <mxGeometry x="0.3263" y="-2" relative="1" as="geometry">
            <mxPoint as="offset" />
          </mxGeometry>
        </mxCell>
        <mxCell id="ln1YY3OUBzTWCqrGMW5q-51" value="" style="edgeStyle=orthogonalEdgeStyle;rounded=0;orthogonalLoop=1;jettySize=auto;html=1;" edge="1" parent="1" source="ln1YY3OUBzTWCqrGMW5q-38" target="ln1YY3OUBzTWCqrGMW5q-50">
          <mxGeometry relative="1" as="geometry" />
        </mxCell>
        <mxCell id="ln1YY3OUBzTWCqrGMW5q-53" value="" style="edgeStyle=orthogonalEdgeStyle;rounded=0;orthogonalLoop=1;jettySize=auto;html=1;" edge="1" parent="1" source="ln1YY3OUBzTWCqrGMW5q-38" target="ln1YY3OUBzTWCqrGMW5q-52">
          <mxGeometry relative="1" as="geometry" />
        </mxCell>
        <mxCell id="ln1YY3OUBzTWCqrGMW5q-38" value="&lt;div&gt;area.gd&lt;/div&gt;&lt;div&gt;&lt;br&gt;&lt;/div&gt;&lt;div&gt;important parts&lt;/div&gt;&lt;div&gt;uses external_selected() to change the bool member variable selected then calls decide_action()&lt;/div&gt;&lt;div&gt;&lt;br&gt;&lt;/div&gt;&lt;div&gt;this then figures out what to do next&amp;nbsp; &lt;br&gt;&lt;/div&gt;&lt;div&gt;&lt;br&gt;&lt;/div&gt;&lt;div&gt;the two important parts&lt;/div&gt;&lt;div&gt;change_me()&lt;/div&gt;&lt;div&gt;left_me()&lt;/div&gt;&lt;div&gt;&lt;br&gt;&lt;/div&gt;&lt;div&gt;change_me fires when we interact with unselected box&lt;br&gt;&lt;/div&gt;&lt;div&gt;left_me() when cursor or controller goes out&lt;br&gt;&lt;/div&gt;" style="rounded=0;whiteSpace=wrap;html=1;resizeHeight=1;fixedWidth=1;autosize=1;" vertex="1" parent="1">
          <mxGeometry x="1170" y="-220" width="160" height="290" as="geometry" />
        </mxCell>
        <mxCell id="ln1YY3OUBzTWCqrGMW5q-48" value="" style="edgeStyle=orthogonalEdgeStyle;rounded=0;orthogonalLoop=1;jettySize=auto;html=1;" edge="1" parent="1" source="ln1YY3OUBzTWCqrGMW5q-41" target="ln1YY3OUBzTWCqrGMW5q-47">
          <mxGeometry relative="1" as="geometry" />
        </mxCell>
        <mxCell id="ln1YY3OUBzTWCqrGMW5q-49" value="holds reference to" style="edgeLabel;html=1;align=center;verticalAlign=middle;resizable=0;points=[];" vertex="1" connectable="0" parent="ln1YY3OUBzTWCqrGMW5q-48">
          <mxGeometry x="0.6431" y="-3" relative="1" as="geometry">
            <mxPoint as="offset" />
          </mxGeometry>
        </mxCell>
        <mxCell id="ln1YY3OUBzTWCqrGMW5q-41" value="scrollview.tscn" style="rounded=0;whiteSpace=wrap;html=1;resizeHeight=1;fixedWidth=1;autosize=1;" vertex="1" parent="1">
          <mxGeometry x="1170" y="-290" width="160" height="30" as="geometry" />
        </mxCell>
        <mxCell id="ln1YY3OUBzTWCqrGMW5q-47" value="video_render_player.tscn" style="rounded=0;whiteSpace=wrap;html=1;resizeHeight=1;fixedWidth=1;autosize=1;" vertex="1" parent="1">
          <mxGeometry x="1170" y="-480" width="160" height="30" as="geometry" />
        </mxCell>
        <mxCell id="ln1YY3OUBzTWCqrGMW5q-50" value="&lt;div&gt;change_me()&lt;/div&gt;&lt;div&gt;&lt;br&gt;&lt;/div&gt;" style="rounded=0;whiteSpace=wrap;html=1;resizeHeight=1;fixedWidth=1;autosize=1;" vertex="1" parent="1">
          <mxGeometry x="1440" y="-195" width="160" height="40" as="geometry" />
        </mxCell>
        <mxCell id="ln1YY3OUBzTWCqrGMW5q-52" value="&lt;div&gt;left_me()&lt;/div&gt;&lt;div&gt;&lt;br&gt;&lt;/div&gt;&lt;div&gt;&lt;br&gt;&lt;/div&gt;" style="rounded=0;whiteSpace=wrap;html=1;resizeHeight=1;fixedWidth=1;autosize=1;" vertex="1" parent="1">
          <mxGeometry x="1460" y="-15" width="160" height="60" as="geometry" />
        </mxCell>
        <mxCell id="ln1YY3OUBzTWCqrGMW5q-54" value="ideas for organization" style="rounded=0;whiteSpace=wrap;html=1;resizeHeight=1;fixedWidth=1;autosize=1;" vertex="1" parent="1">
          <mxGeometry x="270" y="-430" width="160" height="30" as="geometry" />
        </mxCell>
        <mxCell id="ln1YY3OUBzTWCqrGMW5q-55" value="&lt;div&gt;components&lt;/div&gt;&lt;div&gt;&lt;br&gt;&lt;/div&gt;&lt;div&gt;interaction things&lt;/div&gt;&lt;div&gt;scene specific things&lt;/div&gt;&lt;div&gt;datapanel&lt;/div&gt;&lt;div&gt;area&lt;/div&gt;&lt;div&gt;plant loaders&lt;/div&gt;&lt;div&gt;assets&lt;/div&gt;&lt;div&gt;&lt;br&gt;&lt;/div&gt;" style="rounded=0;whiteSpace=wrap;html=1;resizeHeight=1;fixedWidth=1;autosize=1;" vertex="1" parent="1">
          <mxGeometry x="275" y="-355" width="160" height="140" as="geometry" />
        </mxCell>
      </root>
    </mxGraphModel>
  </diagram>
</mxfile>
